<?xml version="1.0" encoding="UTF-8"?>
<svg xmlns="http://www.w3.org/2000/svg" version="1.1" width="250" height="250" viewBox="0 0 250 250"><rect x="0" y="0" width="250" height="250" fill="#ffffff"/><g transform="scale(10)"><g transform="translate(0,0)"><path fill-rule="evenodd" d="M8 0L8 1L9 1L9 2L8 2L8 5L9 5L9 4L11 4L11 5L10 5L10 10L9 10L9 8L8 8L8 10L9 10L9 11L7 11L7 10L6 10L6 9L7 9L7 8L6 8L6 9L5 9L5 10L4 10L4 11L2 11L2 10L3 10L3 9L4 9L4 8L0 8L0 11L1 11L1 12L2 12L2 13L1 13L1 15L0 15L0 16L1 16L1 15L2 15L2 17L8 17L8 18L9 18L9 21L8 21L8 25L9 25L9 23L10 23L10 22L9 22L9 21L10 21L10 18L9 18L9 17L8 17L8 14L9 14L9 13L11 13L11 16L10 16L10 17L11 17L11 16L12 16L12 17L13 17L13 16L12 16L12 14L13 14L13 15L14 15L14 17L15 17L15 16L16 16L16 19L15 19L15 18L13 18L13 21L15 21L15 20L16 20L16 21L17 21L17 22L18 22L18 23L19 23L19 24L17 24L17 25L19 25L19 24L20 24L20 25L21 25L21 22L22 22L22 21L21 21L21 19L22 19L22 17L23 17L23 16L25 16L25 15L24 15L24 14L25 14L25 13L24 13L24 11L22 11L22 9L23 9L23 8L20 8L20 9L19 9L19 10L20 10L20 11L21 11L21 12L20 12L20 14L19 14L19 11L18 11L18 8L17 8L17 5L16 5L16 4L15 4L15 3L14 3L14 1L15 1L15 0L12 0L12 1L11 1L11 0L10 0L10 1L9 1L9 0ZM16 1L16 2L17 2L17 1ZM11 2L11 4L12 4L12 3L13 3L13 2ZM12 5L12 6L11 6L11 8L12 8L12 6L13 6L13 9L14 9L14 11L16 11L16 9L17 9L17 8L16 8L16 5L15 5L15 9L14 9L14 5ZM8 6L8 7L9 7L9 6ZM24 8L24 9L25 9L25 8ZM1 9L1 10L2 10L2 9ZM11 9L11 10L12 10L12 9ZM20 9L20 10L21 10L21 9ZM5 10L5 11L4 11L4 12L3 12L3 13L2 13L2 15L3 15L3 14L5 14L5 15L4 15L4 16L7 16L7 15L6 15L6 14L7 14L7 13L8 13L8 12L7 12L7 11L6 11L6 10ZM5 11L5 12L4 12L4 13L5 13L5 14L6 14L6 13L7 13L7 12L6 12L6 11ZM11 11L11 13L12 13L12 12L13 12L13 11ZM17 11L17 12L18 12L18 11ZM5 12L5 13L6 13L6 12ZM21 13L21 14L20 14L20 15L19 15L19 14L18 14L18 15L19 15L19 16L21 16L21 17L22 17L22 16L23 16L23 15L21 15L21 14L22 14L22 13ZM15 14L15 15L17 15L17 14ZM17 17L17 20L20 20L20 17ZM18 18L18 19L19 19L19 18ZM23 18L23 19L25 19L25 18ZM11 19L11 20L12 20L12 19ZM23 20L23 23L22 23L22 25L25 25L25 24L23 24L23 23L24 23L24 22L25 22L25 21L24 21L24 20ZM19 21L19 23L20 23L20 21ZM14 22L14 23L11 23L11 24L10 24L10 25L12 25L12 24L16 24L16 22ZM0 0L0 7L7 7L7 0ZM1 1L1 6L6 6L6 1ZM2 2L2 5L5 5L5 2ZM18 0L18 7L25 7L25 0ZM19 1L19 6L24 6L24 1ZM20 2L20 5L23 5L23 2ZM0 18L0 25L7 25L7 18ZM1 19L1 24L6 24L6 19ZM2 20L2 23L5 23L5 20Z" fill="#000000"/></g></g></svg>
